<?xml version="1.0" encoding="UTF-8" standalone="no"?>
<!-- Generator: Adobe Illustrator 13.0.0, SVG Export Plug-In . SVG Version: 6.00 Build 14948)  -->

<svg
   xmlns:dc="http://purl.org/dc/elements/1.1/"
   xmlns:cc="http://creativecommons.org/ns#"
   xmlns:rdf="http://www.w3.org/1999/02/22-rdf-syntax-ns#"
   xmlns:svg="http://www.w3.org/2000/svg"
   xmlns="http://www.w3.org/2000/svg"
   xmlns:sodipodi="http://sodipodi.sourceforge.net/DTD/sodipodi-0.dtd"
   xmlns:inkscape="http://www.inkscape.org/namespaces/inkscape"
   version="1.1"
   x="0px"
   y="0px"
   width="500"
   height="500"
   viewBox="0 0 500.00001 500"
   enable-background="new 0 0 1034.949 783.07"
   xml:space="preserve"
   id="svg2985"
   inkscape:version="0.48.4 r9939"
   sodipodi:docname="icons.svg"><metadata
   id="metadata3326"><rdf:RDF><cc:Work
       rdf:about=""><dc:format>image/svg+xml</dc:format><dc:type
         rdf:resource="http://purl.org/dc/dcmitype/StillImage" /></cc:Work></rdf:RDF></metadata><defs
   id="defs3324">
	
	
	
	
	
	
	
	
	
	

	
	
	
</defs><sodipodi:namedview
   pagecolor="#ffffff"
   bordercolor="#666666"
   borderopacity="1"
   objecttolerance="10"
   gridtolerance="10"
   guidetolerance="10"
   inkscape:pageopacity="0"
   inkscape:pageshadow="2"
   inkscape:window-width="1611"
   inkscape:window-height="1087"
   id="namedview3322"
   showgrid="false"
   inkscape:zoom="0.74"
   inkscape:cx="362.30257"
   inkscape:cy="251.66996"
   inkscape:window-x="1945"
   inkscape:window-y="0"
   inkscape:window-maximized="0"
   inkscape:current-layer="svg2985" />

<g
   id="g3098"
   transform="translate(0,-283.07001)">
		
		
		
		
		
		
		
		
		
	</g>
<g
   id="g4513"
   transform="matrix(0.88586586,0,0,0.88586586,33.691148,29.865463)"><path
     transform="matrix(1.1958164,0,0,1.1233427,93.839943,-144.48228)"
     d="m 118.74965,163.54265 c 0,12.8825 -9.81039,23.32582 -21.912133,23.32582 -12.10174,0 -21.912138,-10.44332 -21.912138,-23.32582 0,-12.8825 9.810398,-23.32583 21.912138,-23.32583 12.101743,0 21.912133,10.44333 21.912133,23.32583 z"
     sodipodi:ry="23.325825"
     sodipodi:rx="21.912138"
     sodipodi:cy="163.54265"
     sodipodi:cx="96.837517"
     id="path3041-4"
     style="opacity:0.95;fill:#37abc8;fill-opacity:1;fill-rule:nonzero;stroke:none"
     sodipodi:type="arc" /><path
     transform="matrix(1.1958164,0,0,1.1233427,170.21815,-60.259224)"
     d="m 118.74965,163.54265 c 0,12.8825 -9.81039,23.32582 -21.912133,23.32582 -12.10174,0 -21.912138,-10.44332 -21.912138,-23.32582 0,-12.8825 9.810398,-23.32583 21.912138,-23.32583 12.101743,0 21.912133,10.44333 21.912133,23.32583 z"
     sodipodi:ry="23.325825"
     sodipodi:rx="21.912138"
     sodipodi:cy="163.54265"
     sodipodi:cx="96.837517"
     id="path3041-79"
     style="opacity:0.95;fill:#37abc8;fill-opacity:1;fill-rule:nonzero;stroke:none"
     sodipodi:type="arc" /><path
     transform="matrix(1.1958164,0,0,1.1233427,-78.568614,-60.259224)"
     d="m 118.74965,163.54265 c 0,12.8825 -9.81039,23.32582 -21.912133,23.32582 -12.10174,0 -21.912138,-10.44332 -21.912138,-23.32582 0,-12.8825 9.810398,-23.32583 21.912138,-23.32583 12.101743,0 21.912133,10.44333 21.912133,23.32583 z"
     sodipodi:ry="23.325825"
     sodipodi:rx="21.912138"
     sodipodi:cy="163.54265"
     sodipodi:cx="96.837517"
     id="path3041-1-3"
     style="opacity:0.95;fill:#37abc8;fill-opacity:1;fill-rule:nonzero;stroke:none"
     sodipodi:type="arc" /><path
     transform="matrix(1.1958164,0,0,1.1233427,266.24852,-60.259224)"
     d="m 118.74965,163.54265 c 0,12.8825 -9.81039,23.32582 -21.912133,23.32582 -12.10174,0 -21.912138,-10.44332 -21.912138,-23.32582 0,-12.8825 9.810398,-23.32583 21.912138,-23.32583 12.101743,0 21.912133,10.44333 21.912133,23.32583 z"
     sodipodi:ry="23.325825"
     sodipodi:rx="21.912138"
     sodipodi:cy="163.54265"
     sodipodi:cx="96.837517"
     id="path3041-1-8-8"
     style="opacity:0.95;fill:#37abc8;fill-opacity:1;fill-rule:nonzero;stroke:none"
     sodipodi:type="arc" /><path
     transform="matrix(1.1958164,0,0,1.1233427,-2.1904141,23.963822)"
     d="m 118.74965,163.54265 c 0,12.8825 -9.81039,23.32582 -21.912133,23.32582 -12.10174,0 -21.912138,-10.44332 -21.912138,-23.32582 0,-12.8825 9.810398,-23.32583 21.912138,-23.32583 12.101743,0 21.912133,10.44333 21.912133,23.32583 z"
     sodipodi:ry="23.325825"
     sodipodi:rx="21.912138"
     sodipodi:cy="163.54265"
     sodipodi:cx="96.837517"
     id="path3041-7-2"
     style="opacity:0.95;fill:#37abc8;fill-opacity:1;fill-rule:nonzero;stroke:none"
     sodipodi:type="arc" /><path
     transform="matrix(1.1958164,0,0,1.1233427,93.839943,23.963822)"
     d="m 118.74965,163.54265 c 0,12.8825 -9.81039,23.32582 -21.912133,23.32582 -12.10174,0 -21.912138,-10.44332 -21.912138,-23.32582 0,-12.8825 9.810398,-23.32583 21.912138,-23.32583 12.101743,0 21.912133,10.44333 21.912133,23.32583 z"
     sodipodi:ry="23.325825"
     sodipodi:rx="21.912138"
     sodipodi:cy="163.54265"
     sodipodi:cx="96.837517"
     id="path3041-4-8"
     style="opacity:0.95;fill:#37abc8;fill-opacity:1;fill-rule:nonzero;stroke:none"
     sodipodi:type="arc" /><path
     transform="matrix(1.1958164,0,0,1.1233427,342.6267,23.963822)"
     d="m 118.74965,163.54265 c 0,12.8825 -9.81039,23.32582 -21.912133,23.32582 -12.10174,0 -21.912138,-10.44332 -21.912138,-23.32582 0,-12.8825 9.810398,-23.32583 21.912138,-23.32583 12.101743,0 21.912133,10.44333 21.912133,23.32583 z"
     sodipodi:ry="23.325825"
     sodipodi:rx="21.912138"
     sodipodi:cy="163.54265"
     sodipodi:cx="96.837517"
     id="path3041-7-8-0"
     style="opacity:0.95;fill:#37abc8;fill-opacity:1;fill-rule:nonzero;stroke:none"
     sodipodi:type="arc" /><path
     transform="matrix(1.1958164,0,0,1.1233427,170.21815,108.18689)"
     d="m 118.74965,163.54265 c 0,12.8825 -9.81039,23.32582 -21.912133,23.32582 -12.10174,0 -21.912138,-10.44332 -21.912138,-23.32582 0,-12.8825 9.810398,-23.32583 21.912138,-23.32583 12.101743,0 21.912133,10.44333 21.912133,23.32583 z"
     sodipodi:ry="23.325825"
     sodipodi:rx="21.912138"
     sodipodi:cy="163.54265"
     sodipodi:cx="96.837517"
     id="path3041-2"
     style="opacity:0.95;fill:#37abc8;fill-opacity:1;fill-rule:nonzero;stroke:none"
     sodipodi:type="arc" /><path
     transform="matrix(1.1958164,0,0,1.1233427,-78.568614,108.18689)"
     d="m 118.74965,163.54265 c 0,12.8825 -9.81039,23.32582 -21.912133,23.32582 -12.10174,0 -21.912138,-10.44332 -21.912138,-23.32582 0,-12.8825 9.810398,-23.32583 21.912138,-23.32583 12.101743,0 21.912133,10.44333 21.912133,23.32583 z"
     sodipodi:ry="23.325825"
     sodipodi:rx="21.912138"
     sodipodi:cy="163.54265"
     sodipodi:cx="96.837517"
     id="path3041-1-4"
     style="opacity:0.95;fill:#37abc8;fill-opacity:1;fill-rule:nonzero;stroke:none"
     sodipodi:type="arc" /><path
     transform="matrix(1.1958164,0,0,1.1233427,266.24852,108.18689)"
     d="m 118.74965,163.54265 c 0,12.8825 -9.81039,23.32582 -21.912133,23.32582 -12.10174,0 -21.912138,-10.44332 -21.912138,-23.32582 0,-12.8825 9.810398,-23.32583 21.912138,-23.32583 12.101743,0 21.912133,10.44333 21.912133,23.32583 z"
     sodipodi:ry="23.325825"
     sodipodi:rx="21.912138"
     sodipodi:cy="163.54265"
     sodipodi:cx="96.837517"
     id="path3041-1-8-0"
     style="opacity:0.95;fill:#37abc8;fill-opacity:1;fill-rule:nonzero;stroke:none"
     sodipodi:type="arc" /><path
     transform="matrix(1.1958164,0,0,1.1233427,-2.1904141,192.40992)"
     d="m 118.74965,163.54265 c 0,12.8825 -9.81039,23.32582 -21.912133,23.32582 -12.10174,0 -21.912138,-10.44332 -21.912138,-23.32582 0,-12.8825 9.810398,-23.32583 21.912138,-23.32583 12.101743,0 21.912133,10.44333 21.912133,23.32583 z"
     sodipodi:ry="23.325825"
     sodipodi:rx="21.912138"
     sodipodi:cy="163.54265"
     sodipodi:cx="96.837517"
     id="path3041-7-13"
     style="opacity:0.95;fill:#37abc8;fill-opacity:1;fill-rule:nonzero;stroke:none"
     sodipodi:type="arc" /><path
     transform="matrix(1.1958164,0,0,1.1233427,93.839943,192.40992)"
     d="m 118.74965,163.54265 c 0,12.8825 -9.81039,23.32582 -21.912133,23.32582 -12.10174,0 -21.912138,-10.44332 -21.912138,-23.32582 0,-12.8825 9.810398,-23.32583 21.912138,-23.32583 12.101743,0 21.912133,10.44333 21.912133,23.32583 z"
     sodipodi:ry="23.325825"
     sodipodi:rx="21.912138"
     sodipodi:cy="163.54265"
     sodipodi:cx="96.837517"
     id="path3041-4-89"
     style="opacity:0.95;fill:#37abc8;fill-opacity:1;fill-rule:nonzero;stroke:none"
     sodipodi:type="arc" /><path
     transform="matrix(1.1958164,0,0,1.1233427,342.6267,192.40992)"
     d="m 118.74965,163.54265 c 0,12.8825 -9.81039,23.32582 -21.912133,23.32582 -12.10174,0 -21.912138,-10.44332 -21.912138,-23.32582 0,-12.8825 9.810398,-23.32583 21.912138,-23.32583 12.101743,0 21.912133,10.44333 21.912133,23.32583 z"
     sodipodi:ry="23.325825"
     sodipodi:rx="21.912138"
     sodipodi:cy="163.54265"
     sodipodi:cx="96.837517"
     id="path3041-7-8-4"
     style="opacity:0.95;fill:#37abc8;fill-opacity:1;fill-rule:nonzero;stroke:none"
     sodipodi:type="arc" /><path
     transform="matrix(1.1958164,0,0,1.1233427,-78.568614,276.63298)"
     d="m 118.74965,163.54265 c 0,12.8825 -9.81039,23.32582 -21.912133,23.32582 -12.10174,0 -21.912138,-10.44332 -21.912138,-23.32582 0,-12.8825 9.810398,-23.32583 21.912138,-23.32583 12.101743,0 21.912133,10.44333 21.912133,23.32583 z"
     sodipodi:ry="23.325825"
     sodipodi:rx="21.912138"
     sodipodi:cy="163.54265"
     sodipodi:cx="96.837517"
     id="path3041-1-066"
     style="opacity:0.95;fill:#37abc8;fill-opacity:1;fill-rule:nonzero;stroke:none"
     sodipodi:type="arc" /><path
     inkscape:connector-curvature="0"
     id="path4234"
     d="m 147.79694,377.94863 27.65541,0"
     style="fill:none;stroke:#333333;stroke-width:8.54491234;stroke-linecap:round;stroke-linejoin:miter;stroke-miterlimit:4;stroke-opacity:1;stroke-dasharray:none" /><path
     inkscape:connector-curvature="0"
     id="path4234-1"
     d="m 147.79694,208.19486 27.65541,0"
     style="fill:none;stroke:#333333;stroke-width:8.54491234;stroke-linecap:round;stroke-linejoin:miter;stroke-miterlimit:4;stroke-opacity:1;stroke-dasharray:none" /><path
     inkscape:connector-curvature="0"
     id="path4234-3"
     d="m 320.20558,292.15918 27.65532,0"
     style="fill:none;stroke:#333333;stroke-width:8.54491234;stroke-linecap:round;stroke-linejoin:miter;stroke-miterlimit:4;stroke-opacity:1;stroke-dasharray:none" /><path
     inkscape:connector-curvature="0"
     id="path4234-5"
     d="m 320.20558,123.31795 27.65532,0"
     style="fill:none;stroke:#333333;stroke-width:8.54491234;stroke-linecap:round;stroke-linejoin:miter;stroke-miterlimit:4;stroke-opacity:1;stroke-dasharray:none" /><path
     inkscape:connector-curvature="0"
     id="path4234-9"
     d="m 64.197881,321.84134 22.445011,24.34301"
     style="fill:none;stroke:#333333;stroke-width:9.33534241;stroke-linecap:round;stroke-linejoin:miter;stroke-miterlimit:4;stroke-opacity:1;stroke-dasharray:none" /><path
     inkscape:connector-curvature="0"
     id="path4234-9-8"
     d="m 236.60646,237.61829 22.44501,24.34302"
     style="fill:none;stroke:#333333;stroke-width:9.33534241;stroke-linecap:round;stroke-linejoin:miter;stroke-miterlimit:4;stroke-opacity:1;stroke-dasharray:none" /><path
     inkscape:connector-curvature="0"
     id="path4234-9-4"
     d="m 409.01501,321.84132 22.445,24.34302"
     style="fill:none;stroke:#333333;stroke-width:9.33500004;stroke-linecap:round;stroke-linejoin:round;stroke-miterlimit:4;stroke-opacity:1;stroke-dasharray:none" /><path
     inkscape:connector-curvature="0"
     id="path4234-9-0"
     d="m 236.60645,69.172195 22.445,24.343013"
     style="fill:none;stroke:#333333;stroke-width:9.33534241;stroke-linecap:round;stroke-linejoin:miter;stroke-miterlimit:4;stroke-opacity:1;stroke-dasharray:none" /><path
     inkscape:connector-curvature="0"
     id="path4234-9-7"
     d="m 64.19788,153.39522 22.444996,24.34301"
     style="fill:none;stroke:#333333;stroke-width:9.33534241;stroke-linecap:round;stroke-linejoin:miter;stroke-miterlimit:4;stroke-opacity:1;stroke-dasharray:none" /><path
     inkscape:transform-center-y="23.066074"
     inkscape:transform-center-x="-32.270932"
     inkscape:connector-curvature="0"
     id="path4234-9-6"
     d="M 86.204502,405.67429 64.636267,430.79748"
     style="fill:none;stroke:#333333;stroke-width:9.33534241;stroke-linecap:round;stroke-linejoin:miter;stroke-miterlimit:4;stroke-opacity:1;stroke-dasharray:none" /><path
     inkscape:transform-center-y="23.066074"
     inkscape:transform-center-x="-32.270932"
     inkscape:connector-curvature="0"
     id="path4234-9-6-3"
     d="m 258.61308,321.45125 -21.56823,25.12318"
     style="fill:none;stroke:#333333;stroke-width:9.33534241;stroke-linecap:round;stroke-linejoin:miter;stroke-miterlimit:4;stroke-opacity:1;stroke-dasharray:none" /><path
     inkscape:transform-center-y="23.066074"
     inkscape:transform-center-x="-32.270932"
     inkscape:connector-curvature="0"
     id="path4234-9-6-6"
     d="m 86.204502,237.2282 -21.56824,25.12319"
     style="fill:none;stroke:#333333;stroke-width:9.33534241;stroke-linecap:round;stroke-linejoin:miter;stroke-miterlimit:4;stroke-opacity:1;stroke-dasharray:none" /><path
     inkscape:transform-center-y="23.066074"
     inkscape:transform-center-x="-32.270932"
     inkscape:connector-curvature="0"
     id="path4234-9-6-1"
     d="m 258.61306,153.00515 -21.56824,25.12319"
     style="fill:none;stroke:#333333;stroke-width:9.33534241;stroke-linecap:round;stroke-linejoin:miter;stroke-miterlimit:4;stroke-opacity:1;stroke-dasharray:none" /><path
     inkscape:transform-center-y="23.066074"
     inkscape:transform-center-x="-32.270932"
     inkscape:connector-curvature="0"
     id="path4234-9-6-5"
     d="m 431.02161,237.22818 -21.56825,25.12319"
     style="fill:none;stroke:#333333;stroke-width:9.33534241;stroke-linecap:round;stroke-linejoin:miter;stroke-miterlimit:4;stroke-opacity:1;stroke-dasharray:none" /><path
     inkscape:connector-curvature="0"
     id="path4234-9-8-4"
     d="m 409.01502,153.39523 22.44501,24.34301"
     style="fill:none;stroke:#333333;stroke-width:9.33534241;stroke-linecap:round;stroke-linejoin:miter;stroke-miterlimit:4;stroke-opacity:1;stroke-dasharray:none" /></g></svg>