<?xml version="1.0" encoding="UTF-8" standalone="no"?>
<!-- Generated by IcoMoon.io -->

<svg
   xmlns:dc="http://purl.org/dc/elements/1.1/"
   xmlns:cc="http://creativecommons.org/ns#"
   xmlns:rdf="http://www.w3.org/1999/02/22-rdf-syntax-ns#"
   xmlns:svg="http://www.w3.org/2000/svg"
   xmlns="http://www.w3.org/2000/svg"
   xmlns:xlink="http://www.w3.org/1999/xlink"
   xmlns:sodipodi="http://sodipodi.sourceforge.net/DTD/sodipodi-0.dtd"
   xmlns:inkscape="http://www.inkscape.org/namespaces/inkscape"
   version="1.1"
   width="576"
   height="128"
   viewBox="0 0 576 128"
   id="svg2"
   inkscape:version="0.48.4 r9939"
   sodipodi:docname="tool-icons.svg">
  <metadata
     id="metadata40">
    <rdf:RDF>
      <cc:Work
         rdf:about="">
        <dc:format>image/svg+xml</dc:format>
        <dc:type
           rdf:resource="http://purl.org/dc/dcmitype/StillImage" />
      </cc:Work>
    </rdf:RDF>
  </metadata>
  <sodipodi:namedview
     pagecolor="#000000"
     bordercolor="#666666"
     borderopacity="1"
     objecttolerance="10"
     gridtolerance="10"
     guidetolerance="10"
     inkscape:pageopacity="1"
     inkscape:pageshadow="2"
     inkscape:window-width="1918"
     inkscape:window-height="1150"
     id="namedview38"
     showgrid="true"
     showguides="true"
     inkscape:guide-bbox="true"
     inkscape:zoom="2"
     inkscape:cx="348.86054"
     inkscape:cy="47.303803"
     inkscape:window-x="0"
     inkscape:window-y="0"
     inkscape:window-maximized="1"
     inkscape:current-layer="svg2"
     inkscape:snap-bbox="true"
     inkscape:snap-global="true"
     borderlayer="true">
    <inkscape:grid
       type="xygrid"
       id="grid3017"
       empspacing="4"
       dotted="true"
       visible="true"
       enabled="true"
       snapvisiblegridlinesonly="true" />
    <sodipodi:guide
       orientation="0,1"
       position="12,32"
       id="guide3025" />
    <sodipodi:guide
       orientation="0,1"
       position="16,48"
       id="guide3027" />
    <sodipodi:guide
       orientation="0,1"
       position="22.128283,80"
       id="guide3029" />
    <sodipodi:guide
       orientation="1,0"
       position="32,28"
       id="guide3031" />
    <sodipodi:guide
       orientation="1,0"
       position="48,28"
       id="guide3033" />
    <sodipodi:guide
       orientation="1,0"
       position="80,56"
       id="guide3829" />
    <sodipodi:guide
       orientation="1,0"
       position="96,56"
       id="guide3841" />
    <sodipodi:guide
       orientation="1,0"
       position="128,52"
       id="guide3843" />
    <sodipodi:guide
       orientation="1,0"
       position="144,52"
       id="guide3845" />
    <sodipodi:guide
       orientation="1,0"
       position="176,52"
       id="guide3847" />
    <sodipodi:guide
       orientation="1,0"
       position="192,60"
       id="guide3913" />
    <sodipodi:guide
       orientation="1,0"
       position="224,64"
       id="guide3915" />
    <sodipodi:guide
       orientation="1,0"
       position="240,50.027805"
       id="guide3955" />
    <sodipodi:guide
       orientation="0,1"
       position="20,96"
       id="guide4161" />
    <sodipodi:guide
       orientation="1,0"
       position="288,20"
       id="guide8011" />
    <sodipodi:guide
       orientation="0,1"
       position="320,0"
       id="guide8013" />
    <sodipodi:guide
       orientation="1,0"
       position="320,12"
       id="guide8015" />
    <sodipodi:guide
       orientation="0,1"
       position="72,128"
       id="guide8017" />
    <sodipodi:guide
       orientation="1,0"
       position="336,32"
       id="guide8019" />
    <sodipodi:guide
       orientation="1,0"
       position="368,4"
       id="guide8021" />
    <sodipodi:guide
       orientation="1,0"
       position="384,-4"
       id="guide8023" />
    <sodipodi:guide
       orientation="1,0"
       position="416,-20"
       id="guide8025" />
    <sodipodi:guide
       orientation="1,0"
       position="432,-40"
       id="guide8027" />
    <sodipodi:guide
       orientation="1,0"
       position="464,-28"
       id="guide8029" />
    <sodipodi:guide
       orientation="1,0"
       position="480,-36"
       id="guide8031" />
    <sodipodi:guide
       orientation="1,0"
       position="512,108"
       id="guide8033" />
    <sodipodi:guide
       orientation="1,0"
       position="528,104"
       id="guide8035" />
    <sodipodi:guide
       orientation="1,0"
       position="560,104"
       id="guide8037" />
    <sodipodi:guide
       orientation="1,0"
       position="576,88"
       id="guide8039" />
    <sodipodi:guide
       orientation="1,0"
       position="272,-32"
       id="guide8041" />
  </sodipodi:namedview>
  <defs
     id="defs4">
    <linearGradient
       id="linearGradient8005">
      <stop
         id="stop8007"
         offset="0"
         style="stop-color:#ffe951;stop-opacity:0.94017094;" />
      <stop
         id="stop8009"
         offset="1"
         style="stop-color:#1a1931;stop-opacity:1;" />
    </linearGradient>
    <linearGradient
       id="linearGradient4151">
      <stop
         id="stop4153"
         offset="0"
         style="stop-color:#000000;stop-opacity:1;" />
      <stop
         style="stop-color:#61f3b3;stop-opacity:0.74901962;"
         offset="0.25"
         id="stop4159" />
      <stop
         style="stop-color:#82adf9;stop-opacity:0.49803922;"
         offset="0.5"
         id="stop4157" />
      <stop
         id="stop4155"
         offset="1"
         style="stop-color:#ae2d00;stop-opacity:1;" />
    </linearGradient>
    <linearGradient
       id="linearGradient3949">
      <stop
         id="stop3951"
         offset="0"
         style="stop-color:#c8c195;stop-opacity:1;" />
      <stop
         id="stop3953"
         offset="1"
         style="stop-color:#414141;stop-opacity:0;" />
    </linearGradient>
    <linearGradient
       id="linearGradient3931">
      <stop
         style="stop-color:#ffeb01;stop-opacity:0"
         offset="0"
         id="stop3933" />
      <stop
         style="stop-color:#ffea01;stop-opacity:0"
         offset="1"
         id="stop3935" />
    </linearGradient>
    <linearGradient
       id="linearGradient3875">
      <stop
         style="stop-color:#9d9d9d;stop-opacity:0.64102566;"
         offset="0"
         id="stop3877" />
      <stop
         style="stop-color:#1a1931;stop-opacity:1;"
         offset="1"
         id="stop3879" />
    </linearGradient>
    <g
       id="icon-cogs">
      <path
         class="path1"
         d="m 11.366,22.564 1.291,-1.807 -1.414,-1.414 -1.807,1.291 C 9.101,20.447 8.742,20.297 8.365,20.19 L 8,18 H 6 L 5.635,20.19 C 5.258,20.297 4.899,20.446 4.564,20.634 L 2.757,19.343 1.343,20.757 2.634,22.564 C 2.447,22.899 2.297,23.258 2.191,23.635 L 0.001,24 v 2 l 2.19,0.365 c 0.107,0.377 0.256,0.736 0.444,1.071 l -1.291,1.807 1.414,1.414 1.807,-1.291 C 4.9,29.553 5.259,29.703 5.636,29.81 L 6.001,32 h 2 l 0.365,-2.19 c 0.377,-0.107 0.736,-0.256 1.071,-0.444 l 1.807,1.291 1.414,-1.414 -1.291,-1.807 c 0.187,-0.335 0.337,-0.694 0.444,-1.071 L 14.001,26 v -2 l -2.19,-0.365 C 11.704,23.258 11.555,22.899 11.367,22.564 z M 7,27 c -1.105,0 -2,-0.895 -2,-2 0,-1.105 0.895,-2 2,-2 1.105,0 2,0.895 2,2 0,1.105 -0.895,2 -2,2 z M 32,12 V 10 L 29.894,9.617 C 29.855,9.366 29.806,9.118 29.746,8.874 L 31.545,7.715 30.78,5.867 28.688,6.319 C 28.556,6.103 28.415,5.893 28.266,5.69 L 29.485,3.929 28.071,2.515 26.31,3.734 C 26.107,3.585 25.897,3.444 25.681,3.312 L 26.133,1.22 24.285,0.455 23.126,2.254 C 22.882,2.195 22.634,2.145 22.383,2.106 L 22,0 H 20 L 19.617,2.106 C 19.366,2.145 19.118,2.194 18.874,2.254 L 17.715,0.455 15.867,1.22 16.319,3.312 C 16.103,3.444 15.893,3.585 15.69,3.734 L 13.929,2.515 12.515,3.929 13.734,5.69 c -0.149,0.203 -0.29,0.413 -0.422,0.629 L 11.22,5.867 10.455,7.715 12.254,8.874 C 12.195,9.118 12.145,9.366 12.106,9.617 L 10,10 v 2 l 2.106,0.383 c 0.039,0.251 0.088,0.499 0.148,0.743 l -1.799,1.159 0.765,1.848 2.092,-0.452 c 0.132,0.216 0.273,0.426 0.422,0.629 l -1.219,1.761 1.414,1.414 1.761,-1.219 c 0.203,0.149 0.413,0.29 0.629,0.422 l -0.452,2.092 1.848,0.765 1.159,-1.799 c 0.244,0.059 0.492,0.109 0.743,0.148 L 20,22 h 2 l 0.383,-2.106 c 0.251,-0.039 0.499,-0.088 0.743,-0.148 l 1.159,1.799 1.848,-0.765 -0.452,-2.092 c 0.216,-0.132 0.426,-0.273 0.629,-0.422 l 1.761,1.219 1.414,-1.414 -1.219,-1.761 c 0.149,-0.203 0.29,-0.413 0.422,-0.629 l 2.092,0.452 0.765,-1.848 -1.799,-1.159 c 0.059,-0.244 0.109,-0.492 0.148,-0.743 L 32,12 z m -11,3.35 c -2.402,0 -4.35,-1.948 -4.35,-4.35 0,-2.402 1.948,-4.35 4.35,-4.35 2.402,0 4.35,1.948 4.35,4.35 0,2.402 -1.948,4.35 -4.35,4.35 z"
         id="path7"
         inkscape:connector-curvature="0" />
    </g>
    <g
       id="icon-cog">
      <path
         class="path1"
         d="M 32,19.003 V 12.997 L 27.413,12.233 C 27.227,11.666 27,11.118 26.735,10.592 L 29.437,6.81 25.19,2.563 21.414,5.26 C 20.886,4.993 20.335,4.763 19.765,4.576 L 19.002,0.001 H 12.996 L 12.233,4.576 C 11.663,4.764 11.112,4.993 10.584,5.26 L 6.808,2.563 2.561,6.81 5.263,10.592 c -0.265,0.526 -0.492,1.074 -0.678,1.641 l -4.587,0.764 v 6.006 l 4.597,0.766 c 0.186,0.561 0.413,1.105 0.676,1.626 l -2.711,3.795 4.247,4.247 3.802,-2.715 c 0.519,0.261 1.059,0.485 1.618,0.67 L 12.995,32 h 6.006 l 0.768,-4.609 c 0.559,-0.185 1.099,-0.409 1.618,-0.67 l 3.802,2.715 4.247,-4.247 -2.711,-3.795 c 0.264,-0.521 0.49,-1.064 0.676,-1.626 l 4.597,-0.766 z M 16,20 c -2.209,0 -4,-1.791 -4,-4 0,-2.209 1.791,-4 4,-4 2.209,0 4,1.791 4,4 0,2.209 -1.791,4 -4,4 z"
         id="path10"
         inkscape:connector-curvature="0" />
    </g>
    <g
       id="icon-stats">
      <path
         class="path1"
         d="m 4,28 h 28 v 4 H 0 V 0 h 4 z m 5,-2 c -1.657,0 -3,-1.343 -3,-3 0,-1.657 1.343,-3 3,-3 0.088,0 0.176,0.005 0.262,0.012 l 3.225,-5.375 C 12.18,14.166 12,13.604 12,12.999 c 0,-1.657 1.343,-3 3,-3 1.657,0 3,1.343 3,3 0,0.604 -0.179,1.167 -0.487,1.638 l 3.225,5.375 C 20.824,20.005 20.912,20 21,20 c 0.067,0 0.133,0.003 0.198,0.007 l 5.324,-9.316 C 26.193,10.209 26,9.627 26,9 c 0,-1.657 1.343,-3 3,-3 1.657,0 3,1.343 3,3 0,1.657 -1.343,3 -3,3 -0.067,0 -0.133,-0.003 -0.198,-0.007 l -5.324,9.316 C 23.807,21.79 24,22.373 24,23 c 0,1.657 -1.343,3 -3,3 -1.657,0 -3,-1.343 -3,-3 0,-0.604 0.179,-1.167 0.487,-1.638 l -3.225,-5.375 c -0.086,0.007 -0.174,0.012 -0.262,0.012 -0.088,0 -0.176,-0.005 -0.262,-0.012 l -3.225,5.375 C 11.82,21.833 12,22.395 12,22.999 c 0,1.657 -1.343,3 -3,3 z"
         id="path13"
         inkscape:connector-curvature="0" />
    </g>
    <g
       id="icon-bars">
      <path
         class="path1"
         d="m 0,26 h 32 v 4 H 0 z m 4,-8 h 4 v 6 H 4 z m 6,-8 h 4 v 14 h -4 z m 6,6 h 4 v 8 H 16 z M 22,4 h 4 v 20 h -4 z"
         id="path16"
         inkscape:connector-curvature="0" />
    </g>
    <g
       id="icon-brightness-medium">
      <path
         class="path1"
         d="m 16,13.188 c -1.551,0 -2.813,1.262 -2.813,2.813 0,1.551 1.262,2.813 2.813,2.813 1.551,0 2.813,-1.262 2.813,-2.813 0,-1.551 -1.262,-2.813 -2.813,-2.813 z M 16,10 v 0 c 3.314,0 6,2.686 6,6 0,3.314 -2.686,6 -6,6 -3.314,0 -6,-2.686 -6,-6 0,-3.314 2.686,-6 6,-6 z m 11.414,14.586 c 0.781,0.781 0.781,2.047 0,2.828 -0.781,0.781 -2.047,0.781 -2.828,0 l -2,-2 c -0.781,-0.781 -0.781,-2.047 0,-2.828 0.781,-0.781 2.047,-0.781 2.828,0 l 2,2 z m -18,-18 c 0.781,0.781 0.781,2.047 0,2.828 -0.781,0.781 -2.047,0.781 -2.828,0 l -2,-2 c -0.781,-0.781 -0.781,-2.047 0,-2.828 0.781,-0.781 2.047,-0.781 2.828,0 l 2,2 z m 15.172,-2 c 0.781,-0.781 2.047,-0.781 2.828,0 0.781,0.781 0.781,2.047 0,2.828 l -2,2 c -0.781,0.781 -2.047,0.781 -2.828,0 -0.781,-0.781 -0.781,-2.047 0,-2.828 l 2,-2 z m -18,18 c 0.781,-0.781 2.047,-0.781 2.828,0 0.781,0.781 0.781,2.047 0,2.828 l -2,2 c -0.781,0.781 -2.047,0.781 -2.828,0 -0.781,-0.781 -0.781,-2.047 0,-2.828 l 2,-2 z M 16,2 c 1.105,0 2,0.895 2,2 V 6 C 18,7.105 17.105,8 16,8 14.895,8 14,7.105 14,6 V 4 c 0,-1.105 0.895,-2 2,-2 z m 0,22 c 1.105,0 2,0.895 2,2 v 2 c 0,1.105 -0.895,2 -2,2 -1.105,0 -2,-0.895 -2,-2 v -2 c 0,-1.105 0.895,-2 2,-2 z M 2,16 c 0,-1.105 0.895,-2 2,-2 h 2 c 1.105,0 2,0.895 2,2 0,1.105 -0.895,2 -2,2 H 4 C 2.895,18 2,17.105 2,16 z m 22,0 c 0,-1.105 0.895,-2 2,-2 h 2 c 1.105,0 2,0.895 2,2 0,1.105 -0.895,2 -2,2 h -2 c -1.105,0 -2,-0.895 -2,-2 z"
         id="path19"
         inkscape:connector-curvature="0" />
    </g>
    <g
       id="icon-console">
      <path
         class="path1"
         d="M 0,2 V 30 H 32 V 2 H 0 z M 30,28 H 2 V 4 H 30 V 28 z M 28,6 H 4 V 26 H 28 V 6 z M 14,16 h -2 v 2 h -2 v 2 H 8 v -2 h 2 v -2 h 2 V 14 H 10 V 12 H 8 v -2 h 2 v 2 h 2 v 2 h 2 v 2 z m 8,4 h -6 v -2 h 6 v 2 z"
         id="path22"
         inkscape:connector-curvature="0" />
    </g>
    <radialGradient
       inkscape:collect="always"
       xlink:href="#linearGradient3875"
       id="radialGradient3881"
       cx="109.02849"
       cy="55.401268"
       fx="109.02849"
       fy="55.401268"
       r="12.253218"
       gradientTransform="matrix(1.1303776,1.2461596,-0.8297187,0.75262869,38.724106,-118.56347)"
       gradientUnits="userSpaceOnUse" />
    <filter
       inkscape:collect="always"
       id="filter3909"
       x="-0.31999606"
       width="1.6399921"
       y="-0.32000393"
       height="1.6400079"
       color-interpolation-filters="sRGB">
      <feGaussianBlur
         inkscape:collect="always"
         stdDeviation="0.40010237"
         id="feGaussianBlur3911" />
    </filter>
    <radialGradient
       inkscape:collect="always"
       xlink:href="#linearGradient3949"
       id="radialGradient3947"
       cx="208.33163"
       cy="64.528252"
       fx="208.33163"
       fy="64.528244"
       r="11"
       gradientTransform="matrix(-1.6364004,1.7272383,-1.1675198,-1.1061183,909.75239,-271.19645)"
       gradientUnits="userSpaceOnUse" />
    <linearGradient
       inkscape:collect="always"
       xlink:href="#linearGradient3875"
       id="linearGradient4149"
       x1="126"
       y1="113"
       x2="102"
       y2="113"
       gradientUnits="userSpaceOnUse"
       gradientTransform="translate(0,-97)" />
    <radialGradient
       inkscape:collect="always"
       xlink:href="#linearGradient3949"
       id="radialGradient7999"
       gradientUnits="userSpaceOnUse"
       gradientTransform="matrix(-1.6364004,1.7272383,-1.1675198,-1.1061183,909.75239,-223.30248)"
       cx="208.33163"
       cy="64.528252"
       fx="208.33163"
       fy="64.528244"
       r="11" />
    <radialGradient
       inkscape:collect="always"
       xlink:href="#linearGradient8005"
       id="radialGradient8001"
       gradientUnits="userSpaceOnUse"
       gradientTransform="matrix(1.1303776,1.2461596,-0.8297187,0.75262869,38.724106,-118.56347)"
       cx="109.02849"
       cy="55.401268"
       fx="109.02849"
       fy="55.401268"
       r="12.253218" />
    <linearGradient
       inkscape:collect="always"
       xlink:href="#linearGradient4151"
       id="linearGradient8003"
       gradientUnits="userSpaceOnUse"
       x1="101.5"
       y1="113.5"
       x2="126.5"
       y2="113.5"
       gradientTransform="translate(0,-49.106009)" />
  </defs>
  <path
     style="fill:#000000;fill-opacity:1;stroke:#ffffff;stroke-width:1px;stroke-linecap:butt;stroke-linejoin:miter;stroke-opacity:1"
     d="M 5.6897862,23.21662 8.783378,26.13344 16.208,23.83534 8.871767,17.47138 z"
     id="path4363"
     inkscape:connector-curvature="0"
     sodipodi:nodetypes="ccccc" />
  <path
     style="fill:#333333;fill-opacity:1;stroke:#ffffff;stroke-width:1px;stroke-linecap:butt;stroke-linejoin:miter;stroke-opacity:1"
     d="M 5.6013979,19.85786 11.965359,26.3986 19.743533,23.57018 8.429825,13.58229 z"
     id="path4361"
     inkscape:connector-curvature="0"
     sodipodi:nodetypes="ccccc" />
  <path
     style="fill:#666666;fill-opacity:1;stroke:#ffffff;stroke-width:1px;stroke-linecap:butt;stroke-linejoin:miter;stroke-opacity:1"
     d="M 5.8665629,16.67588 14.882174,25.95666 25.223611,23.21662 26.549436,16.67588 16.208,5.45056 8.871767,6.77639 z"
     id="path4359"
     inkscape:connector-curvature="0" />
  <path
     style="fill:url(#radialGradient3947);fill-opacity:1;stroke:none"
     d="m 480.5,15.26566 c 1,0 9,-6 9,-6 l 12,12 -6,10.99999 -15,0 0,-16.99999"
     id="path3929"
     inkscape:connector-curvature="0" />
  <use
     height="32"
     width="272"
     y="0"
     x="0"
     style="fill:#ffffff"
     id="use32"
     transform="translate(144,0)"
     xlink:href="#icon-bars" />
  <use
     height="32"
     width="272"
     y="0"
     x="0"
     style="fill:#ffffff"
     id="use34"
     transform="translate(192,0)"
     xlink:href="#icon-brightness-medium" />
  <use
     height="32"
     width="272"
     y="0"
     x="0"
     style="fill:#ffffff"
     id="use36"
     transform="translate(240,0)"
     xlink:href="#icon-console" />
  <path
     style="fill:#666666;fill-opacity:1;stroke:#ffffff;stroke-width:1.5;stroke-linecap:butt;stroke-linejoin:miter;stroke-miterlimit:4;stroke-opacity:1;stroke-dasharray:none"
     d="m 296.5,23.26566 0,-16 4,-4.000005 16,0 0,16.000005 -4,4 z"
     id="path3035"
     inkscape:connector-curvature="0" />
  <path
     style="fill:#b3b3b3;fill-opacity:1;stroke:#ffffff;stroke-width:1px;stroke-linecap:butt;stroke-linejoin:miter;stroke-opacity:1"
     d="m 296.5,7.26566 16,0 0,16 -16,0 z"
     id="path3037"
     inkscape:connector-curvature="0" />
  <path
     style="fill:none;stroke:#ffffff;stroke-width:1px;stroke-linecap:butt;stroke-linejoin:miter;stroke-opacity:1"
     d="m 296.5,29.26566 0,-4"
     id="path3807"
     inkscape:connector-curvature="0" />
  <path
     style="fill:none;stroke:#ffffff;stroke-width:1px;stroke-linecap:butt;stroke-linejoin:miter;stroke-opacity:1"
     d="m 312.5,29.26566 0,-4"
     id="path3809"
     inkscape:connector-curvature="0" />
  <path
     style="fill:none;stroke:#ffffff;stroke-width:1px;stroke-linecap:butt;stroke-linejoin:miter;stroke-opacity:1"
     d="m 299.5,25.26566 -2,2 2,2"
     id="path3813"
     inkscape:connector-curvature="0" />
  <path
     style="fill:none;stroke:#ffffff;stroke-width:1px;stroke-linecap:butt;stroke-linejoin:miter;stroke-opacity:1"
     d="m 309.5,25.26566 2,2 -2,2"
     id="path3815"
     inkscape:connector-curvature="0" />
  <path
     style="fill:none;stroke:#ffffff;stroke-width:1px;stroke-linecap:butt;stroke-linejoin:miter;stroke-opacity:1"
     d="m 311.5,27.26566 -14,0"
     id="path3817"
     inkscape:connector-curvature="0" />
  <path
     style="fill:none;stroke:#ffffff;stroke-width:1px;stroke-linecap:butt;stroke-linejoin:miter;stroke-opacity:1"
     d="m 290.5,23.26566 4,0"
     id="path3819"
     inkscape:connector-curvature="0" />
  <path
     style="fill:none;stroke:#ffffff;stroke-width:1px;stroke-linecap:butt;stroke-linejoin:miter;stroke-opacity:1"
     d="m 290.5,7.26566 4,0"
     id="path3821"
     inkscape:connector-curvature="0" />
  <path
     style="fill:none;stroke:#ffffff;stroke-width:1px;stroke-linecap:butt;stroke-linejoin:miter;stroke-opacity:1"
     d="m 290.5,10.26566 2,-2 2,2"
     id="path3823"
     inkscape:connector-curvature="0" />
  <path
     style="fill:none;stroke:#ffffff;stroke-width:1px;stroke-linecap:butt;stroke-linejoin:miter;stroke-opacity:1"
     d="m 290.5,20.26566 2,2 2,-2"
     id="path3825"
     inkscape:connector-curvature="0" />
  <path
     style="fill:none;stroke:#ffffff;stroke-width:1px;stroke-linecap:butt;stroke-linejoin:miter;stroke-opacity:1"
     d="m 292.5,22.26566 0,-14"
     id="path3827"
     inkscape:connector-curvature="0"
     sodipodi:nodetypes="cc" />
  <rect
     style="fill:#b3b3b3;fill-opacity:1;stroke:#ffffff;stroke-width:1;stroke-miterlimit:4;stroke-opacity:1;stroke-dasharray:none"
     id="rect3835"
     width="16"
     height="16"
     x="340.1875"
     y="3.7031565"
     rx="0"
     ry="0" />
  <path
     sodipodi:type="arc"
     style="fill:#666666;fill-opacity:1;stroke:#ffffff;stroke-width:1;stroke-miterlimit:4;stroke-opacity:1;stroke-dasharray:none"
     id="path3837"
     sodipodi:cx="58.5"
     sodipodi:cy="70.5"
     sodipodi:rx="7.9375"
     sodipodi:ry="8.1875"
     d="M 65.129858,65.998032 A 7.9375,8.1875 0 1 1 63.191362,63.895603"
     sodipodi:start="5.7009902"
     sodipodi:end="11.627919"
     transform="translate(292.6875,-50.671845)"
     sodipodi:open="true" />
  <path
     style="fill:#e6e6e6;fill-opacity:1;stroke:#ffffff;stroke-width:1.5;stroke-linecap:butt;stroke-linejoin:miter;stroke-miterlimit:4;stroke-opacity:1;stroke-dasharray:none"
     d="m 357,3.015655 -7.5,14.250005 15,0 z"
     id="path3839"
     inkscape:connector-curvature="0"
     sodipodi:nodetypes="cccc" />
  <path
     sodipodi:type="arc"
     style="fill:url(#radialGradient3881);fill-opacity:1;stroke:#ffffff;stroke-width:1;stroke-miterlimit:4;stroke-opacity:1;stroke-dasharray:none"
     id="path3851"
     sodipodi:cx="112"
     sodipodi:cy="64"
     sodipodi:rx="12"
     sodipodi:ry="12"
     d="m 108.38012,75.440998 a 12,12 0 1 1 0.0292,0.0092"
     sodipodi:start="1.8772265"
     sodipodi:end="8.1578587"
     sodipodi:open="true"
     transform="translate(287.5,-48.734345)" />
  <path
     sodipodi:open="true"
     sodipodi:end="8.1577286"
     sodipodi:start="1.8772265"
     d="m 108.38012,75.440998 a 12,12 0 1 1 0.0307,0.0097"
     sodipodi:ry="12"
     sodipodi:rx="12"
     sodipodi:cy="64"
     sodipodi:cx="112"
     id="path3887"
     style="fill:#808080;fill-opacity:1;stroke:#ffffff;stroke-width:1;stroke-miterlimit:4;stroke-opacity:1;stroke-dasharray:none"
     sodipodi:type="arc"
     transform="translate(336.25,-48.734345)" />
  <path
     sodipodi:type="arc"
     style="fill:#ffffff;fill-opacity:1;stroke:none;filter:url(#filter3909)"
     id="path3891"
     sodipodi:cx="166.5"
     sodipodi:cy="59.5"
     sodipodi:rx="1.5"
     sodipodi:ry="1.5"
     d="m 166.04751,60.930125 a 1.5,1.5 0 1 1 0.0568,0.01675"
     sodipodi:start="1.8772265"
     sodipodi:end="8.1209215"
     sodipodi:open="true"
     transform="matrix(1.2231042,-0.70648033,0.95801454,1.6585764,192.77679,29.31159)" />
  <path
     style="fill:#808080;stroke:#ffffff;stroke-width:1px;stroke-linecap:butt;stroke-linejoin:miter;stroke-opacity:1"
     d="m 497.5,7.26566 7,-5.000005 3,3.000005 -4,7 z"
     id="path3927"
     inkscape:connector-curvature="0"
     sodipodi:nodetypes="ccccc" />
  <path
     style="fill:#808080;stroke:#ffffff;stroke-width:1px;stroke-linecap:butt;stroke-linejoin:miter;stroke-opacity:1"
     d="m 489.33333,9.43232 12,12 c 0,0 6,-6 0,-12 -6,-5.999998 -12,0 -12,0 z"
     id="path3921"
     inkscape:connector-curvature="0" />
  <path
     style="fill:none;stroke:#ffffff;stroke-width:4;stroke-linecap:butt;stroke-linejoin:miter;stroke-miterlimit:4;stroke-opacity:1;stroke-dasharray:none"
     d="m 98,-1 0,30 30,0"
     id="path4139"
     inkscape:connector-curvature="0"
     sodipodi:nodetypes="ccc" />
  <path
     style="fill:url(#linearGradient4149);fill-opacity:1;stroke:none"
     d="m 102,25 6,-7 6,2 6,-10 6,-3 0,18"
     id="path4141"
     inkscape:connector-curvature="0"
     sodipodi:nodetypes="cccccc" />
  <path
     inkscape:connector-curvature="0"
     id="path4224"
     d="m 296.5,23.26566 0,-16 4,-4.000005 16,0 0,16.000005 -4,4 z"
     style="fill:#666666;fill-opacity:1;stroke:#ffffff;stroke-width:1.5;stroke-linecap:butt;stroke-linejoin:miter;stroke-miterlimit:4;stroke-opacity:1;stroke-dasharray:none" />
  <path
     inkscape:connector-curvature="0"
     id="path4226"
     d="m 296.5,7.26566 16,0 0,16 -16,0 z"
     style="fill:#b3b3b3;fill-opacity:1;stroke:#ffffff;stroke-width:1px;stroke-linecap:butt;stroke-linejoin:miter;stroke-opacity:1" />
  <path
     inkscape:connector-curvature="0"
     id="path4228"
     d="m 296.5,29.26566 0,-4"
     style="fill:none;stroke:#ffffff;stroke-width:1px;stroke-linecap:butt;stroke-linejoin:miter;stroke-opacity:1" />
  <path
     inkscape:connector-curvature="0"
     id="path4230"
     d="m 312.5,29.26566 0,-4"
     style="fill:none;stroke:#ffffff;stroke-width:1px;stroke-linecap:butt;stroke-linejoin:miter;stroke-opacity:1" />
  <path
     inkscape:connector-curvature="0"
     id="path4232"
     d="m 299.5,25.26566 -2,2 2,2"
     style="fill:none;stroke:#ffffff;stroke-width:1px;stroke-linecap:butt;stroke-linejoin:miter;stroke-opacity:1" />
  <path
     inkscape:connector-curvature="0"
     id="path4234"
     d="m 309.5,25.26566 2,2 -2,2"
     style="fill:none;stroke:#ffffff;stroke-width:1px;stroke-linecap:butt;stroke-linejoin:miter;stroke-opacity:1" />
  <path
     inkscape:connector-curvature="0"
     id="path4236"
     d="m 311.5,27.26566 -14,0"
     style="fill:none;stroke:#ffffff;stroke-width:1px;stroke-linecap:butt;stroke-linejoin:miter;stroke-opacity:1" />
  <path
     inkscape:connector-curvature="0"
     id="path4238"
     d="m 290.5,23.26566 4,0"
     style="fill:none;stroke:#ffffff;stroke-width:1px;stroke-linecap:butt;stroke-linejoin:miter;stroke-opacity:1" />
  <path
     inkscape:connector-curvature="0"
     id="path4240"
     d="m 290.5,7.26566 4,0"
     style="fill:none;stroke:#ffffff;stroke-width:1px;stroke-linecap:butt;stroke-linejoin:miter;stroke-opacity:1" />
  <path
     inkscape:connector-curvature="0"
     id="path4242"
     d="m 290.5,10.26566 2,-2 2,2"
     style="fill:none;stroke:#ffffff;stroke-width:1px;stroke-linecap:butt;stroke-linejoin:miter;stroke-opacity:1" />
  <path
     inkscape:connector-curvature="0"
     id="path4244"
     d="m 290.5,20.26566 2,2 2,-2"
     style="fill:none;stroke:#ffffff;stroke-width:1px;stroke-linecap:butt;stroke-linejoin:miter;stroke-opacity:1" />
  <path
     sodipodi:nodetypes="cc"
     inkscape:connector-curvature="0"
     id="path4246"
     d="m 292.5,22.26566 0,-14"
     style="fill:none;stroke:#ffffff;stroke-width:1px;stroke-linecap:butt;stroke-linejoin:miter;stroke-opacity:1" />
  <path
     style="fill:#666666;fill-opacity:1;stroke:#ffffff;stroke-width:1.5;stroke-linecap:butt;stroke-linejoin:miter;stroke-miterlimit:4;stroke-opacity:1;stroke-dasharray:none"
     d="m 53.625,25.75 0,-16 4,-4 16,0 0,16 -4,4 z"
     id="path3035-7"
     inkscape:connector-curvature="0" />
  <path
     style="fill:#b3b3b3;fill-opacity:1;stroke:#ffffff;stroke-width:1px;stroke-linecap:butt;stroke-linejoin:miter;stroke-opacity:1"
     d="m 53.625,9.75 3.4375,0 12.5625,12.125 0,3.875 -16,0 z"
     id="path3037-4"
     inkscape:connector-curvature="0"
     sodipodi:nodetypes="cccccc" />
  <path
     style="fill:#ebebeb;fill-opacity:1;stroke:#ffffff;stroke-width:1px;stroke-linecap:butt;stroke-linejoin:miter;stroke-opacity:1"
     d="m 57.25,9.75 12.3125,11.8125 2.375,-13.5 z"
     id="path4281"
     inkscape:connector-curvature="0"
     sodipodi:nodetypes="cccc" />
  <path
     style="fill:#999999;fill-opacity:1;stroke:#ffffff;stroke-width:1px;stroke-linecap:butt;stroke-linejoin:miter;stroke-opacity:1"
     d="M 17.975766,25.95667 23.632621,24.63083 26.195881,11.46097 20.627416,5.80412 8.164659,8.10222 6.3968917,13.49391 z"
     id="path4351"
     inkscape:connector-curvature="0"
     sodipodi:nodetypes="ccccccc" />
  <path
     style="fill:#cccccc;fill-opacity:1;stroke:#ffffff;stroke-width:1px;stroke-linecap:butt;stroke-linejoin:miter;stroke-opacity:1"
     d="M 6.396893,10.13515 21.776465,25.95666 26.284271,5.71573 z"
     id="path4353"
     inkscape:connector-curvature="0" />
  <path
     style="fill:#ececec;fill-opacity:1;stroke:#ffffff;stroke-width:1px;stroke-linecap:butt;stroke-linejoin:miter;stroke-opacity:1"
     d="M 11.788583,10.22353 21.864854,20.74175 24.339728,7.92544 z"
     id="path4355"
     inkscape:connector-curvature="0"
     sodipodi:nodetypes="cccc" />
  <path
     style="fill:#f2f2f2;fill-opacity:1;stroke:#ffffff;stroke-width:1px;stroke-linecap:butt;stroke-linejoin:miter;stroke-opacity:1"
     d="m 15.942834,10.93065 5.656855,5.12652 1.325825,-6.98269 z"
     id="path4357"
     inkscape:connector-curvature="0"
     sodipodi:nodetypes="cccc" />
  <rect
     style="fill:#808080;fill-opacity:1;stroke:#ffffff;stroke-width:1;stroke-miterlimit:4;stroke-opacity:1;stroke-dasharray:none"
     id="rect4375"
     width="24"
     height="24"
     x="532.5"
     y="3.2656565" />
  <path
     style="opacity:0.5;fill:none;stroke:#000000;stroke-width:1px;stroke-linecap:butt;stroke-linejoin:miter;stroke-opacity:1"
     d="m 532.62862,3.60523 5.3033,2.65165 1.94454,4.41942 3.0052,0.70711 1.41422,4.94974 3.0052,1.94455 4.06587,1.06066 1.94454,3.0052 1.23744,3.0052 2.12132,2.12132"
     id="path4401"
     inkscape:connector-curvature="0"
     sodipodi:nodetypes="cccccccccc" />
  <path
     sodipodi:nodetypes="cccccccccc"
     inkscape:connector-curvature="0"
     id="path4403"
     d="m 535.10349,0.95358 5.3033,2.65165 1.94454,4.41942 3.0052,0.70711 1.41422,4.94974 3.0052,1.94455 4.06587,1.06066 1.94454,3.0052 1.23744,3.0052 2.12132,2.12132"
     style="opacity:0.5;fill:none;stroke:#000000;stroke-width:1px;stroke-linecap:butt;stroke-linejoin:miter;stroke-opacity:1" />
  <path
     style="opacity:0.5;fill:none;stroke:#000000;stroke-width:1px;stroke-linecap:butt;stroke-linejoin:miter;stroke-opacity:1"
     d="m 537.57836,-2.228401 5.3033,2.65165 1.94454,4.419421 3.0052,0.7071 1.41422,4.94975 3.0052,1.94454 4.06587,1.06067 1.94454,3.0052 1.23744,3.0052 2.12132,2.12132"
     id="path4405"
     inkscape:connector-curvature="0"
     sodipodi:nodetypes="cccccccccc" />
  <path
     sodipodi:nodetypes="cccccccccc"
     inkscape:connector-curvature="0"
     id="path4407"
     d="m 540.23001,-4.526498 5.3033,2.65165 1.94454,4.419417 3.0052,0.707108 1.41422,4.949743 3.0052,1.94455 4.06587,1.06066 1.94454,3.0052 1.23744,3.00521 2.12132,2.12132"
     style="opacity:0.5;fill:none;stroke:#000000;stroke-width:1px;stroke-linecap:butt;stroke-linejoin:miter;stroke-opacity:1" />
  <path
     style="opacity:0.5;fill:none;stroke:#000000;stroke-width:1px;stroke-linecap:butt;stroke-linejoin:miter;stroke-opacity:1"
     d="m 542.52811,-7.354925 5.3033,2.65165 1.94454,4.419417 3.0052,0.707108 1.41422,4.94975 3.0052,1.94454 4.06587,1.06066 1.94454,3.0052 1.23744,3.00521 2.12132,2.12132"
     id="path4409"
     inkscape:connector-curvature="0"
     sodipodi:nodetypes="cccccccccc" />
  <path
     sodipodi:nodetypes="cccccccccc"
     inkscape:connector-curvature="0"
     id="path4411"
     d="m 529.80019,6.25688 5.3033,2.65165 1.94454,4.41942 3.0052,0.70711 1.41422,4.94974 3.0052,1.94455 4.06587,1.06066 1.94454,3.0052 1.23744,3.0052 2.12132,2.12132"
     style="opacity:0.5;fill:none;stroke:#000000;stroke-width:1px;stroke-linecap:butt;stroke-linejoin:miter;stroke-opacity:1" />
  <path
     style="opacity:0.5;fill:none;stroke:#000000;stroke-width:1px;stroke-linecap:butt;stroke-linejoin:miter;stroke-opacity:1"
     d="m 527.67887,9.26208 5.3033,2.65165 1.94454,4.41942 3.0052,0.70711 1.41422,4.94975 3.0052,1.94454 4.06587,1.06066 1.94454,3.0052 1.23744,3.00521 2.12132,2.12132"
     id="path4413"
     inkscape:connector-curvature="0"
     sodipodi:nodetypes="cccccccccc" />
  <path
     sodipodi:nodetypes="cccccccccc"
     inkscape:connector-curvature="0"
     id="path4415"
     d="m 525.38077,11.56018 5.3033,2.65165 1.94454,4.41942 3.0052,0.70711 1.41422,4.94974 3.0052,1.94455 4.06587,1.06066 1.94454,3.0052 1.23744,3.0052 2.12132,2.12132"
     style="opacity:0.5;fill:none;stroke:#000000;stroke-width:1px;stroke-linecap:butt;stroke-linejoin:miter;stroke-opacity:1" />
  <path
     style="opacity:0.5;fill:none;stroke:#000000;stroke-width:1px;stroke-linecap:butt;stroke-linejoin:miter;stroke-opacity:1"
     d="m 235.13077,63.044526 5.3033,2.65165 1.94454,4.419417 3.0052,0.707108 1.41422,4.949746 3.0052,1.944544 4.06587,1.060661 1.94454,3.005203 1.23744,3.005204 2.12132,2.12132"
     id="path4417"
     inkscape:connector-curvature="0"
     sodipodi:nodetypes="cccccccccc" />
  <path
     sodipodi:nodetypes="ccccc"
     inkscape:connector-curvature="0"
     id="path7883"
     d="m 5.6897862,71.110611 3.0935918,2.91682 7.424622,-2.2981 -7.336233,-6.36396 z"
     style="fill:#000000;fill-opacity:1;stroke:#ffffff;stroke-width:1px;stroke-linecap:butt;stroke-linejoin:miter;stroke-opacity:1" />
  <path
     sodipodi:nodetypes="ccccc"
     inkscape:connector-curvature="0"
     id="path7885"
     d="m 5.6013979,67.751851 6.3639611,6.54074 7.778174,-2.82842 -11.313708,-9.98789 z"
     style="fill:#333333;fill-opacity:1;stroke:#ffffff;stroke-width:1px;stroke-linecap:butt;stroke-linejoin:miter;stroke-opacity:1" />
  <path
     inkscape:connector-curvature="0"
     id="path7887"
     d="m 5.8665629,64.569871 9.0156111,9.28078 10.341437,-2.74004 1.325825,-6.54074 L 16.208,53.344551 8.871767,54.670381 z"
     style="fill:#666666;fill-opacity:1;stroke:#ffffff;stroke-width:1px;stroke-linecap:butt;stroke-linejoin:miter;stroke-opacity:1" />
  <path
     inkscape:connector-curvature="0"
     id="path7889"
     d="m 480.5,63.159646 c 1,0 9,-6 9,-6 l 12,12 -6,11 -15,0 0,-17"
     style="fill:url(#radialGradient7999);fill-opacity:1;stroke:none" />
  <use
     xlink:href="#icon-bars"
     transform="translate(144,47.893991)"
     id="use7891"
     style="fill:#ffdd55"
     x="0"
     y="0"
     width="272"
     height="32" />
  <use
     xlink:href="#icon-brightness-medium"
     transform="translate(192,47.893991)"
     id="use7893"
     style="fill:#ffdd55"
     x="0"
     y="0"
     width="272"
     height="32" />
  <use
     xlink:href="#icon-console"
     transform="translate(240,47.893991)"
     id="use7895"
     style="fill:#ffdd55"
     x="0"
     y="0"
     width="272"
     height="32" />
  <path
     inkscape:connector-curvature="0"
     id="path7897"
     d="m 296.5,71.159646 0,-16 4,-4 16,0 0,16 -4,4 z"
     style="fill:#666666;fill-opacity:1;stroke:#ffffff;stroke-width:1.5;stroke-linecap:butt;stroke-linejoin:miter;stroke-miterlimit:4;stroke-opacity:1;stroke-dasharray:none" />
  <path
     inkscape:connector-curvature="0"
     id="path7899"
     d="m 296.5,55.159646 16,0 0,16 -16,0 z"
     style="fill:#b3b3b3;fill-opacity:1;stroke:#ffffff;stroke-width:1px;stroke-linecap:butt;stroke-linejoin:miter;stroke-opacity:1" />
  <path
     inkscape:connector-curvature="0"
     id="path7901"
     d="m 296.5,77.159646 0,-4"
     style="fill:none;stroke:#ffffff;stroke-width:1px;stroke-linecap:butt;stroke-linejoin:miter;stroke-opacity:1" />
  <path
     inkscape:connector-curvature="0"
     id="path7903"
     d="m 312.5,77.159646 0,-4"
     style="fill:none;stroke:#ffffff;stroke-width:1px;stroke-linecap:butt;stroke-linejoin:miter;stroke-opacity:1" />
  <path
     inkscape:connector-curvature="0"
     id="path7905"
     d="m 299.5,73.159646 -2,2 2,2"
     style="fill:none;stroke:#ffffff;stroke-width:1px;stroke-linecap:butt;stroke-linejoin:miter;stroke-opacity:1" />
  <path
     inkscape:connector-curvature="0"
     id="path7907"
     d="m 309.5,73.159646 2,2 -2,2"
     style="fill:none;stroke:#ffffff;stroke-width:1px;stroke-linecap:butt;stroke-linejoin:miter;stroke-opacity:1" />
  <path
     inkscape:connector-curvature="0"
     id="path7911"
     d="m 290.5,71.159646 4,0"
     style="fill:none;stroke:#ffffff;stroke-width:1px;stroke-linecap:butt;stroke-linejoin:miter;stroke-opacity:1" />
  <path
     inkscape:connector-curvature="0"
     id="path7913"
     d="m 290.5,55.159646 4,0"
     style="fill:none;stroke:#ffffff;stroke-width:1px;stroke-linecap:butt;stroke-linejoin:miter;stroke-opacity:1" />
  <path
     inkscape:connector-curvature="0"
     id="path7915"
     d="m 290.5,58.159646 2,-2 2,2"
     style="fill:none;stroke:#ffffff;stroke-width:1px;stroke-linecap:butt;stroke-linejoin:miter;stroke-opacity:1" />
  <path
     inkscape:connector-curvature="0"
     id="path7917"
     d="m 290.5,68.159646 2,2 2,-2"
     style="fill:none;stroke:#ffffff;stroke-width:1px;stroke-linecap:butt;stroke-linejoin:miter;stroke-opacity:1" />
  <path
     sodipodi:nodetypes="cc"
     inkscape:connector-curvature="0"
     id="path7919"
     d="m 292.5,70.159646 0,-14"
     style="fill:none;stroke:#ffffff;stroke-width:1px;stroke-linecap:butt;stroke-linejoin:miter;stroke-opacity:1" />
  <rect
     ry="0"
     rx="0"
     y="51.597145"
     x="340.1875"
     height="16"
     width="16"
     id="rect7921"
     style="fill:#ffdd55;fill-opacity:1;stroke:#ffffff;stroke-width:1;stroke-miterlimit:4;stroke-opacity:1;stroke-dasharray:none" />
  <path
     sodipodi:open="true"
     transform="translate(292.6875,-2.7778532)"
     sodipodi:end="11.627919"
     sodipodi:start="5.7009902"
     d="M 65.129858,65.998032 A 7.9375,8.1875 0 1 1 63.191362,63.895603"
     sodipodi:ry="8.1875"
     sodipodi:rx="7.9375"
     sodipodi:cy="70.5"
     sodipodi:cx="58.5"
     id="path7923"
     style="fill:#aa8800;fill-opacity:1;stroke:#ffffff;stroke-width:1;stroke-miterlimit:4;stroke-opacity:1;stroke-dasharray:none"
     sodipodi:type="arc" />
  <path
     sodipodi:nodetypes="cccc"
     inkscape:connector-curvature="0"
     id="path7925"
     d="m 357,50.909646 -7.5,14.25 15,0 z"
     style="fill:#ffeeaa;fill-opacity:1;stroke:#ffffff;stroke-width:1.5;stroke-linecap:butt;stroke-linejoin:miter;stroke-miterlimit:4;stroke-opacity:1;stroke-dasharray:none" />
  <path
     sodipodi:open="true"
     sodipodi:end="8.1578587"
     sodipodi:start="1.8772265"
     d="m 108.38012,75.440998 a 12,12 0 1 1 0.0292,0.0092"
     sodipodi:ry="12"
     sodipodi:rx="12"
     sodipodi:cy="64"
     sodipodi:cx="112"
     id="path7927"
     style="fill:url(#radialGradient8001);fill-opacity:1;stroke:#ffffff;stroke-width:1;stroke-miterlimit:4;stroke-opacity:1;stroke-dasharray:none"
     sodipodi:type="arc"
     transform="translate(287.5,-0.84035316)" />
  <path
     transform="translate(336.25,-0.84035316)"
     sodipodi:type="arc"
     style="fill:#ffd42a;fill-opacity:1;stroke:#ffffff;stroke-width:1;stroke-miterlimit:4;stroke-opacity:1;stroke-dasharray:none"
     id="path7929"
     sodipodi:cx="112"
     sodipodi:cy="64"
     sodipodi:rx="12"
     sodipodi:ry="12"
     d="m 108.38012,75.440998 a 12,12 0 1 1 0.0307,0.0097"
     sodipodi:start="1.8772265"
     sodipodi:end="8.1577286"
     sodipodi:open="true" />
  <path
     transform="matrix(1.2231042,-0.70648033,0.95801454,1.6585764,192.77679,77.205584)"
     sodipodi:open="true"
     sodipodi:end="8.1209215"
     sodipodi:start="1.8772265"
     d="m 166.04751,60.930125 a 1.5,1.5 0 1 1 0.0568,0.01675"
     sodipodi:ry="1.5"
     sodipodi:rx="1.5"
     sodipodi:cy="59.5"
     sodipodi:cx="166.5"
     id="path7931"
     style="fill:#ffffff;fill-opacity:1;stroke:none;filter:url(#filter3909)"
     sodipodi:type="arc" />
  <path
     sodipodi:nodetypes="ccccc"
     inkscape:connector-curvature="0"
     id="path7933"
     d="m 497.5,55.159646 7,-5 3,3 -4,7 z"
     style="fill:#ffd42a;stroke:#ffffff;stroke-width:1px;stroke-linecap:butt;stroke-linejoin:miter;stroke-opacity:1" />
  <path
     inkscape:connector-curvature="0"
     id="path7935"
     d="m 489.33333,57.326313 12,12 c 0,0 6,-6 0,-12 -6,-6 -12,0 -12,0 z"
     style="fill:#ffd42a;stroke:#ffffff;stroke-width:1px;stroke-linecap:butt;stroke-linejoin:miter;stroke-opacity:1" />
  <path
     sodipodi:nodetypes="ccc"
     inkscape:connector-curvature="0"
     id="path7937"
     d="m 98,46.893991 0,30 30,0"
     style="fill:none;stroke:#ffe915;stroke-width:4;stroke-linecap:butt;stroke-linejoin:miter;stroke-miterlimit:4;stroke-opacity:1;stroke-dasharray:none" />
  <path
     sodipodi:nodetypes="cccccc"
     inkscape:connector-curvature="0"
     id="path7939"
     d="m 102,72.893991 6,-7 6,2 6,-10 6,-3 0,18"
     style="fill:url(#linearGradient8003);fill-opacity:1;stroke:none" />
  <path
     style="fill:#aa8800;fill-opacity:1;stroke:#ffffff;stroke-width:1.5;stroke-linecap:butt;stroke-linejoin:miter;stroke-miterlimit:4;stroke-opacity:1;stroke-dasharray:none"
     d="m 296.5,71.159646 0,-16 4,-4 16,0 0,16 -4,4 z"
     id="path7941"
     inkscape:connector-curvature="0" />
  <path
     style="fill:#ffdd55;fill-opacity:1;stroke:#ffffff;stroke-width:1px;stroke-linecap:butt;stroke-linejoin:miter;stroke-opacity:1"
     d="m 296.5,55.159646 16,0 0,16 -16,0 z"
     id="path7943"
     inkscape:connector-curvature="0" />
  <path
     style="fill:none;stroke:#ffffff;stroke-width:1px;stroke-linecap:butt;stroke-linejoin:miter;stroke-opacity:1"
     d="m 296.5,77.159646 0,-4"
     id="path7945"
     inkscape:connector-curvature="0" />
  <path
     style="fill:none;stroke:#ffffff;stroke-width:1px;stroke-linecap:butt;stroke-linejoin:miter;stroke-opacity:1"
     d="m 312.5,77.159646 0,-4"
     id="path7947"
     inkscape:connector-curvature="0" />
  <path
     style="fill:none;stroke:#ffffff;stroke-width:1px;stroke-linecap:butt;stroke-linejoin:miter;stroke-opacity:1"
     d="m 299.5,73.159646 -2,2 2,2"
     id="path7949"
     inkscape:connector-curvature="0" />
  <path
     style="fill:none;stroke:#ffffff;stroke-width:1px;stroke-linecap:butt;stroke-linejoin:miter;stroke-opacity:1"
     d="m 309.5,73.159646 2,2 -2,2"
     id="path7951"
     inkscape:connector-curvature="0" />
  <path
     style="fill:none;stroke:#ffffff;stroke-width:1px;stroke-linecap:butt;stroke-linejoin:miter;stroke-opacity:1"
     d="m 290.5,71.159646 4,0"
     id="path7955"
     inkscape:connector-curvature="0" />
  <path
     style="fill:none;stroke:#ffffff;stroke-width:1px;stroke-linecap:butt;stroke-linejoin:miter;stroke-opacity:1"
     d="m 290.5,55.159646 4,0"
     id="path7957"
     inkscape:connector-curvature="0" />
  <path
     style="fill:none;stroke:#ffffff;stroke-width:1px;stroke-linecap:butt;stroke-linejoin:miter;stroke-opacity:1"
     d="m 290.5,58.159646 2,-2 2,2"
     id="path7959"
     inkscape:connector-curvature="0" />
  <path
     style="fill:none;stroke:#ffffff;stroke-width:1px;stroke-linecap:butt;stroke-linejoin:miter;stroke-opacity:1"
     d="m 290.5,68.159646 2,2 2,-2"
     id="path7961"
     inkscape:connector-curvature="0" />
  <path
     style="fill:none;stroke:#ffffff;stroke-width:1px;stroke-linecap:butt;stroke-linejoin:miter;stroke-opacity:1"
     d="m 292.5,70.159646 0,-14"
     id="path7963"
     inkscape:connector-curvature="0"
     sodipodi:nodetypes="cc" />
  <path
     inkscape:connector-curvature="0"
     id="path7965"
     d="m 53.625,73.643991 0,-16 4,-4 16,0 0,16 -4,4 z"
     style="fill:#aa8800;fill-opacity:1;stroke:#ffffff;stroke-width:1.5;stroke-linecap:butt;stroke-linejoin:miter;stroke-miterlimit:4;stroke-opacity:1;stroke-dasharray:none" />
  <path
     sodipodi:nodetypes="cccccc"
     inkscape:connector-curvature="0"
     id="path7967"
     d="m 53.625,57.643991 3.4375,0 12.5625,12.125 0,3.875 -16,0 z"
     style="fill:#ffdd55;fill-opacity:1;stroke:#ffffff;stroke-width:1px;stroke-linecap:butt;stroke-linejoin:miter;stroke-opacity:1" />
  <path
     sodipodi:nodetypes="cccc"
     inkscape:connector-curvature="0"
     id="path7969"
     d="m 57.25,57.643991 12.3125,11.8125 2.375,-13.5 z"
     style="fill:#ffeeaa;fill-opacity:1;stroke:#ffffff;stroke-width:1px;stroke-linecap:butt;stroke-linejoin:miter;stroke-opacity:1" />
  <path
     sodipodi:nodetypes="ccccccc"
     inkscape:connector-curvature="0"
     id="path7971"
     d="m 17.975766,73.850661 5.656855,-1.32584 2.56326,-13.16986 -5.568465,-5.65685 -12.462757,2.2981 -1.7677673,5.39169 z"
     style="fill:#999999;fill-opacity:1;stroke:#ffffff;stroke-width:1px;stroke-linecap:butt;stroke-linejoin:miter;stroke-opacity:1" />
  <path
     inkscape:connector-curvature="0"
     id="path7973"
     d="m 6.396893,58.029141 15.379572,15.82151 4.507806,-20.24093 z"
     style="fill:#cccccc;fill-opacity:1;stroke:#ffffff;stroke-width:1px;stroke-linecap:butt;stroke-linejoin:miter;stroke-opacity:1" />
  <path
     sodipodi:nodetypes="cccc"
     inkscape:connector-curvature="0"
     id="path7975"
     d="m 11.788583,58.117521 10.076271,10.51822 2.474874,-12.81631 z"
     style="fill:#ececec;fill-opacity:1;stroke:#ffffff;stroke-width:1px;stroke-linecap:butt;stroke-linejoin:miter;stroke-opacity:1" />
  <path
     sodipodi:nodetypes="cccc"
     inkscape:connector-curvature="0"
     id="path7977"
     d="m 15.942834,58.824641 5.656855,5.12652 1.325825,-6.98269 z"
     style="fill:#f2f2f2;fill-opacity:1;stroke:#ffffff;stroke-width:1px;stroke-linecap:butt;stroke-linejoin:miter;stroke-opacity:1" />
  <rect
     y="51.159645"
     x="532.5"
     height="24"
     width="24"
     id="rect7979"
     style="fill:#ffd42a;fill-opacity:1;stroke:#ffffff;stroke-width:1;stroke-miterlimit:4;stroke-opacity:1;stroke-dasharray:none" />
  <path
     sodipodi:nodetypes="cccccccccc"
     inkscape:connector-curvature="0"
     id="path7981"
     d="m 532.62862,51.499221 5.3033,2.65165 1.94454,4.419417 3.0052,0.707108 1.41422,4.949746 3.0052,1.944544 4.06587,1.060661 1.94454,3.005203 1.23744,3.005204 2.12132,2.12132"
     style="opacity:0.5;fill:none;stroke:#000000;stroke-width:1px;stroke-linecap:butt;stroke-linejoin:miter;stroke-opacity:1" />
  <path
     style="opacity:0.5;fill:none;stroke:#000000;stroke-width:1px;stroke-linecap:butt;stroke-linejoin:miter;stroke-opacity:1"
     d="m 535.10349,48.847571 5.3033,2.65165 1.94454,4.419417 3.0052,0.707108 1.41422,4.949746 3.0052,1.944544 4.06587,1.060661 1.94454,3.005203 1.23744,3.005204 2.12132,2.12132"
     id="path7983"
     inkscape:connector-curvature="0"
     sodipodi:nodetypes="cccccccccc" />
  <path
     sodipodi:nodetypes="cccccccccc"
     inkscape:connector-curvature="0"
     id="path7985"
     d="m 537.57836,45.66559 5.3033,2.65165 1.94454,4.419417 3.0052,0.707108 1.41422,4.949746 3.0052,1.944544 4.06587,1.060661 1.94454,3.005203 1.23744,3.005204 2.12132,2.12132"
     style="opacity:0.5;fill:none;stroke:#000000;stroke-width:1px;stroke-linecap:butt;stroke-linejoin:miter;stroke-opacity:1" />
  <path
     style="opacity:0.5;fill:none;stroke:#000000;stroke-width:1px;stroke-linecap:butt;stroke-linejoin:miter;stroke-opacity:1"
     d="m 540.23001,43.367493 5.3033,2.65165 1.94454,4.419417 3.0052,0.707108 1.41422,4.949746 3.0052,1.944544 4.06587,1.060661 1.94454,3.005203 1.23744,3.005204 2.12132,2.12132"
     id="path7987"
     inkscape:connector-curvature="0"
     sodipodi:nodetypes="cccccccccc" />
  <path
     sodipodi:nodetypes="cccccccccc"
     inkscape:connector-curvature="0"
     id="path7989"
     d="m 542.52811,40.539066 5.3033,2.65165 1.94454,4.419417 3.0052,0.707108 1.41422,4.949746 3.0052,1.944544 4.06587,1.060661 1.94454,3.005203 1.23744,3.005204 2.12132,2.12132"
     style="opacity:0.5;fill:none;stroke:#000000;stroke-width:1px;stroke-linecap:butt;stroke-linejoin:miter;stroke-opacity:1" />
  <path
     style="opacity:0.5;fill:none;stroke:#000000;stroke-width:1px;stroke-linecap:butt;stroke-linejoin:miter;stroke-opacity:1"
     d="m 529.80019,54.150871 5.3033,2.65165 1.94454,4.419417 3.0052,0.707108 1.41422,4.949746 3.0052,1.944544 4.06587,1.060661 1.94454,3.005203 1.23744,3.005204 2.12132,2.12132"
     id="path7991"
     inkscape:connector-curvature="0"
     sodipodi:nodetypes="cccccccccc" />
  <path
     sodipodi:nodetypes="cccccccccc"
     inkscape:connector-curvature="0"
     id="path7993"
     d="m 527.67887,57.156075 5.3033,2.65165 1.94454,4.419417 3.0052,0.707108 1.41422,4.949746 3.0052,1.944544 4.06587,1.060661 1.94454,3.005203 1.23744,3.005204 2.12132,2.12132"
     style="opacity:0.5;fill:none;stroke:#000000;stroke-width:1px;stroke-linecap:butt;stroke-linejoin:miter;stroke-opacity:1" />
  <path
     style="opacity:0.5;fill:none;stroke:#000000;stroke-width:1px;stroke-linecap:butt;stroke-linejoin:miter;stroke-opacity:1"
     d="m 525.38077,58.85192 5.3033,2.65165 1.94454,4.419417 3.0052,0.707108 1.41422,4.949746 3.0052,1.944544 4.06587,1.060661 1.94454,3.005203 1.23744,3.005204 2.12132,2.12132"
     id="path7995"
     inkscape:connector-curvature="0"
     sodipodi:nodetypes="cccccccccc" />
  <path
     sodipodi:nodetypes="cccccccccc"
     inkscape:connector-curvature="0"
     id="path7997"
     d="m 523.63077,61.60192 5.3033,2.65165 1.94454,4.419417 3.0052,0.707108 1.41422,4.949746 3.0052,1.944544 4.06587,1.060661 1.94454,3.005203 1.23744,3.005204 2.12132,2.12132"
     style="opacity:0.5;fill:none;stroke:#000000;stroke-width:1px;stroke-linecap:butt;stroke-linejoin:miter;stroke-opacity:1" />
</svg>
