<?xml version="1.0" encoding="UTF-8" standalone="no"?>
<!-- Generator: Adobe Illustrator 13.0.0, SVG Export Plug-In . SVG Version: 6.00 Build 14948)  -->

<svg
   xmlns:dc="http://purl.org/dc/elements/1.1/"
   xmlns:cc="http://creativecommons.org/ns#"
   xmlns:rdf="http://www.w3.org/1999/02/22-rdf-syntax-ns#"
   xmlns:svg="http://www.w3.org/2000/svg"
   xmlns="http://www.w3.org/2000/svg"
   xmlns:sodipodi="http://sodipodi.sourceforge.net/DTD/sodipodi-0.dtd"
   xmlns:inkscape="http://www.inkscape.org/namespaces/inkscape"
   version="1.1"
   x="0px"
   y="0px"
   width="500"
   height="500"
   viewBox="0 0 500.00001 500"
   enable-background="new 0 0 1034.949 783.07"
   xml:space="preserve"
   id="svg2985"
   inkscape:version="0.91 r13725"
   sodipodi:docname="icons.svg"><metadata
     id="metadata3326"><rdf:RDF><cc:Work
         rdf:about=""><dc:format>image/svg+xml</dc:format><dc:type
           rdf:resource="http://purl.org/dc/dcmitype/StillImage" /></cc:Work></rdf:RDF></metadata><defs
     id="defs3324" /><sodipodi:namedview
     pagecolor="#ffffff"
     bordercolor="#666666"
     borderopacity="1"
     objecttolerance="10"
     gridtolerance="10"
     guidetolerance="10"
     inkscape:pageopacity="0"
     inkscape:pageshadow="2"
     inkscape:window-width="1178"
     inkscape:window-height="1021"
     id="namedview3322"
     showgrid="false"
     inkscape:zoom="1.1196396"
     inkscape:cx="230.62306"
     inkscape:cy="225.99137"
     inkscape:window-x="1157"
     inkscape:window-y="18"
     inkscape:window-maximized="0"
     inkscape:current-layer="svg2985" /><g
     id="g3098"
     transform="translate(0,-283.07001)" /><path
     style="opacity:1;fill:#f1d400;fill-opacity:1;stroke:none;stroke-width:0.93141377;stroke-opacity:1"
     d="m 0.71057925,443.61245 0,-53.58445 22.75605175,0 22.756052,0 0,53.58445 0,53.58444 -22.756052,0 -22.75605175,0 0,-53.58444 z"
     id="path4332"
     inkscape:connector-curvature="0" /><path
     style="opacity:1;fill:#2f55ed;fill-opacity:1;stroke:none;stroke-width:0.90171593;stroke-opacity:1"
     d="m 272.89111,443.1658 0,-54.03109 93.77589,0 93.77589,0 0,54.03109 0,54.03109 -93.77589,0 -93.77589,0 0,-54.03109 z"
     id="path4328"
     inkscape:connector-curvature="0" /><path
     style="opacity:1;fill:#de1400;fill-opacity:1;stroke:none;stroke-width:0.89314455;stroke-opacity:1"
     d="m 467.80605,443.16165 0,-54.03525 16.52317,0 16.52317,0 0,54.03525 0,54.03524 -16.52317,0 -16.52317,0 0,-54.03524 z"
     id="path4330"
     inkscape:connector-curvature="0" /><path
     style="opacity:1;fill:#f1d400;fill-opacity:1;stroke:none;stroke-width:0.80610442;stroke-opacity:1"
     d="m 274.84329,35.007434 0,-33.5360441 92.03742,0 92.03742,0 0,33.5360441 0,33.536045 c -75.71906,1.485612 -83.66838,0 -184.07484,0 z"
     id="path4334"
     inkscape:connector-curvature="0"
     sodipodi:nodetypes="cccccccc" /><path
     style="opacity:1;fill:#de1400;fill-opacity:1;stroke:none"
     d="m 48.028106,189.24065 0,-116.555356 110.749924,0 110.74993,0 0,116.555356 0,116.55537 -110.74993,0 -110.749924,0 0,-116.55537 z"
     id="path4318"
     inkscape:connector-curvature="0" /><rect
     style="opacity:1;fill:#000000;fill-opacity:1;stroke:none"
     id="rect4137-5-5-7-4"
     width="189.18883"
     height="8"
     x="307.60626"
     y="-162.08658"
     transform="matrix(0,1,-1,0,0,0)" /><rect
     style="opacity:1;fill:#000000;fill-opacity:1;stroke:none"
     id="rect4137-7-6"
     width="226.6626"
     height="8"
     x="43.415569"
     y="440.41132" /><path
     style="opacity:1;fill:#f1d400;fill-opacity:1;stroke:none"
     d="m 274.88682,128.50683 0,-53.142102 91.99389,0 91.99389,0 0,53.142102 0,53.1421 -91.99389,0 -91.99389,0 0,-53.1421 z"
     id="path4320"
     inkscape:connector-curvature="0" /><path
     style="opacity:1;fill:#000000;fill-opacity:1;stroke:#000000;stroke-width:0.93804824;stroke-opacity:1"
     d="m 162.38075,471.69226 0,-25.04318 54.0051,0 54.00511,0 0,25.04318 0,25.04318 -54.00511,0 -54.0051,0 0,-25.04318 z"
     id="path4336"
     inkscape:connector-curvature="0" /><path
     style="opacity:1;fill:#000000;fill-opacity:1;stroke:#000000;stroke-width:0.9422971;stroke-opacity:1"
     d="m 51.62526,418.15361 0,-24.98347 52.67095,0 52.67095,0 0,24.98347 0,24.98347 -52.67095,0 -52.67095,0 0,-24.98347 z"
     id="path4338"
     inkscape:connector-curvature="0" /><path
     style="opacity:1;fill:#000000;fill-opacity:1;stroke:#000000;stroke-width:0.91968453;stroke-opacity:1"
     d="m 51.613954,349.38147 0,-36.60565 52.682256,0 52.68226,0 0,36.60565 0,36.60565 -52.68226,0 -52.682256,0 0,-36.60565 z"
     id="path4340"
     inkscape:connector-curvature="0" /><rect
     style="opacity:1;fill:#000000;fill-opacity:1;stroke:none"
     id="rect4137"
     width="499.07169"
     height="8"
     x="0.71057928"
     y="67.317062" /><rect
     style="opacity:1;fill:#000000;fill-opacity:1;stroke:none"
     id="rect4137-7"
     width="499.07169"
     height="8"
     x="0.71057928"
     y="384.89926" /><rect
     style="opacity:1;fill:#000000;fill-opacity:1;stroke:none"
     id="rect4137-5"
     width="425.83383"
     height="8"
     x="71.363068"
     y="-51.336666"
     transform="matrix(0,1,-1,0,0,0)" /><rect
     style="opacity:1;fill:#000000;fill-opacity:1;stroke:none"
     id="rect4137-5-5"
     width="495.53741"
     height="8"
     x="1.4713899"
     y="-274.6228"
     transform="matrix(0,1,-1,0,0,0)" /><rect
     style="opacity:1;fill:#000000;fill-opacity:1;stroke:none"
     id="rect4137-5-8"
     width="494.65048"
     height="8"
     x="1.4713899"
     y="-467.54202"
     transform="matrix(0,1,-1,0,0,0)" /><rect
     style="opacity:1;fill:#000000;fill-opacity:1;stroke:none"
     id="rect4137-5-5-7"
     width="70.400604"
     height="8"
     x="1.4713899"
     y="-125.46765"
     transform="matrix(0,1,-1,0,0,0)" /><rect
     style="opacity:1;fill:#000000;fill-opacity:1;stroke:none"
     id="rect4137-7-0"
     width="421.3681"
     height="8"
     x="43.415562"
     y="304.65335" /><rect
     style="opacity:1;fill:#000000;fill-opacity:1;stroke:none"
     id="rect4137-7-0-1"
     width="196.29567"
     height="8"
     x="268.93454"
     y="182.29256" /><rect
     style="opacity:1;fill:#000000;fill-opacity:1;stroke:none"
     id="rect4137-5-4"
     width="126.6304"
     height="8"
     x="184.15775"
     y="-369.29611"
     transform="matrix(0,1,-1,0,0,0)" /></svg>